/* XPM */
static char *result[] = {
/* columns rows colors chars-per-pixel */
"32 32 28 1 ",
"  c #1B1B1B",
". c gray11",
"X c #1D1D1D",
"o c #282828",
"O c gray16",
"+ c #353535",
"@ c #414141",
"# c gray26",
"$ c gray29",
"% c #4E4E4E",
"& c #555555",
"* c #5F5F5F",
"= c #676767",
"- c DimGray",
"; c #717171",
": c #727272",
"> c #808080",
", c gray55",
"< c #8D8D8D",
"1 c gray60",
"2 c #A5A5A5",
"3 c #B2B2B2",
"4 c gray",
"5 c gray75",
"6 c #CBCBCB",
"7 c #D7D7D7",
"8 c #E4E4E4",
"9 c None",
/* pixels */
"99999999999999999999999999999999",
"99999999999999999999999999999999",
"99999999999999999999999999999999",
"99999999999999999999999999999999",
"99999999999999999999999999999999",
"9999999999............9999999999",
"99999999X*1+@1%.1=.>11*X99999999",
"99999999.=8%%8=.81.388=.99999999",
"999999 .81.33...888%%888.X999999",
"999999*=1=.33...888%%888=*999999",
"99999.18...33...888%%88881.99999",
"999 $37833377333%%%Oo%%%%+. X999",
"999.%86334843333%%%%#.+%%%%O.999",
"999.%8=..=8%....88883.18888%.999",
"999.%8=..=8%....88883.18888%.999",
"999.%8=..=8%....88883.18888%.999",
"99999.18.=8%....88883.1881.99999",
"99999X;1=18%....88821=381:X99999",
"999999 .888%....888%%888.X999999",
"99999999%>84,...888458<%99999999",
"99999999.-374%+.888873&.99999999",
"9999999999.388=.88883.9999999999",
"99999999999&,831888>-99999999999",
"99999999999.%888888%.99999999999",
"9999999999999.1881.9999999999999",
"9999999999999X;11:X9999999999999",
"99999999999999 ..X99999999999999",
"99999999999999999999999999999999",
"99999999999999999999999999999999",
"99999999999999999999999999999999",
"99999999999999999999999999999999",
"99999999999999999999999999999999"
};
