/* XPM */
static char *result[] = {
/* columns rows colors chars-per-pixel */
"32 32 3 1 ",
"  c gray11",
". c #E4E4E4",
"X c None",
/* pixels */
"  ............................  ",
"  ............................  ",
"  ..                        ..  ",
"  ..                        ..  ",
"  ..                        ..  ",
"  ..                        ..  ",
"  ..  ....................  ..  ",
"  ..  ....................  ..  ",
"  ..  ....            ..    ..  ",
"  ..  ....            ..    ..  ",
"  ..  ....  ........  ..    ..  ",
"  ..  ....  ........  ..    ..  ",
"  ..  ....  ........  ..    ..  ",
"  ..  ....  ........  ..    ..  ",
"  ..  ....................  ..  ",
"  ..  ....................  ..  ",
"  ..    ..................  ..  ",
"  ..    ..................  ..  ",
"  ..    ..................  ..  ",
"  ..    ..................  ..  ",
"  ..  ....            ....  ..  ",
"  ..  ....            ....  ..  ",
"  ..  ....  ........  ..    ..  ",
"  ..  ....  ........  ..    ..  ",
"  ..  ....  ........  ..    ..  ",
"  ..  ....  ........  ..    ..  ",
"  ..  ..................    ..  ",
"  ..  ..................    ..  ",
"  ..  ....................  ..  ",
"  ..  ....................  ..  ",
"XXXXXXXXXXXXXXXXXXXXXXXXXXXXXXXX",
"XXXXXXXXXXXXXXXXXXXXXXXXXXXXXXXX"
};
