/* XPM */
static char *result[] = {
/* columns rows colors chars-per-pixel */
"32 32 29 1 ",
"  c #1B1B1B",
". c gray11",
"X c #1D1D1D",
"o c #282828",
"O c gray16",
"+ c #353535",
"@ c #434343",
"# c #4E4E4E",
"$ c #535353",
"% c #5B5B5B",
"& c #676767",
"* c #717171",
"= c #727272",
"- c gray45",
"; c gray48",
": c #808080",
"> c gray55",
", c #8D8D8D",
"< c #8E8E8E",
"1 c #939393",
"2 c gray58",
"3 c gray60",
"4 c #A5A5A5",
"5 c gray65",
"6 c #B2B2B2",
"7 c #CBCBCB",
"8 c #D7D7D7",
"9 c #E4E4E4",
"0 c None",
/* pixels */
"00000000000000000000000000000000",
"00000000000000000000000000000000",
"0000000 ................ 0000000",
"000000.;::::::::::::::::;.000000",
"00000 .799999999999999997.X00000",
"0000X*38999999999999999983=X0000",
"000..3999999999999999999993..000",
"00 ;789999999999999999999987; 00",
"00.:999999877777777778999999:.00",
"00.:9999993..........3999999:.00",
"00.:999983:&&&&&&&&&&:389999:.00",
"00.:99997.&9999999999&.79999:.00",
"00.:999,-.&96:7997:69&.->999:.00",
"00.:999+..&9:.6996.:9&..+999:.00",
"00.:999+..&9:.6996.:9&..+999:.00",
"00.:999+..&9:.6996.:9&..+999:.00",
"000..3997.&9999999999&.7993..000",
"0000.<663.%6666666666#.566;.0000",
"00000 ....................X00000",
"000000..o:::#.&::&.#:::O..000000",
"0000000 +999:.6996.:999+ 0000000",
"000000X24999:.#&&%.:99941X000000",
"00000 .79999:......:99997.X00000",
"00000 .7994+:777777:+5997.X00000",
"00000  6773+,999999,+3776  00000",
"0000000 ..&9999999999&.. 0000000",
"0000000 X.&9994336999&..X0000000",
"000000000.&999#..#999&.000000000",
"000000000.$:::@..@:::$.000000000",
"00000000000...0000...00000000000",
"00000000000000000000000000000000",
"00000000000000000000000000000000"
};
