/* XPM */
static char *result[] = {
/* columns rows colors chars-per-pixel */
"32 32 92 1 ",
"  c #276767",
". c #286767",
"X c #2B6D62",
"o c #2C6D61",
"O c #2D6D62",
"+ c #2C6C63",
"@ c #2C6D63",
"# c #2C6E62",
"$ c #2D6E62",
"% c #2A6964",
"& c #2B6A64",
"* c #2B6B64",
"= c #2A6A65",
"- c #296866",
"; c #2B6C64",
": c #256169",
"> c #246269",
", c #256269",
"< c #246369",
"1 c #256369",
"2 c #24626A",
"3 c #24636A",
"4 c #25636A",
"5 c #256568",
"6 c #266568",
"7 c #276568",
"8 c #266469",
"9 c #276668",
"0 c #2D7363",
"q c #2E7263",
"w c #2E7764",
"e c #2E7C66",
"r c #2F7F66",
"t c #2F8167",
"y c #328668",
"u c #308869",
"i c #308B69",
"p c #30906A",
"a c #36906A",
"s c #36956B",
"d c #31956C",
"f c #34986C",
"g c #379A6D",
"h c #3D9F6E",
"j c #43A46E",
"k c #46A76F",
"l c #49A96F",
"z c #49A970",
"x c #4FAE70",
"c c #52B170",
"v c #56B371",
"b c #59B671",
"n c #59B672",
"m c #62BD71",
"M c #62BD73",
"N c #61BE73",
"B c #62BF72",
"V c #62BE73",
"C c #64BF74",
"Z c #66BF74",
"A c #67BE75",
"S c #66C074",
"D c #68C075",
"F c #6AC175",
"G c #6DC376",
"H c #6EC376",
"J c #70C476",
"K c #71C577",
"L c #75C678",
"P c #77C778",
"I c #77C87A",
"U c #79C879",
"Y c #79C979",
"T c #7DCA7A",
"R c #7FCB7A",
"E c #81CC7B",
"W c #87CF82",
"Q c #89CF81",
"! c #8FD189",
"~ c #91D387",
"^ c #99D58D",
"/ c #99D68D",
"( c #A1D993",
") c #A5DB96",
"_ c #A9DD99",
"` c #B1E09F",
"' c #B5E2A2",
"] c #B9E3A5",
"[ c #B9E4A5",
"{ c #BDE5A8",
"} c #C1E7AB",
"| c None",
/* pixels */
"||||||||||||||||||||||||||||||||",
"||||||||||||||||||||||||||||||||",
"||||||||||||||||||||||||||||||||",
"||||||||||||||||||||||||||||||||",
"||||||||||||||||||||||||||||||||",
"||||||||||||444|||||||||4|||||||",
"||||||||||||76<||||||||57|||||||",
"||||||||||||$#||||||||4.$|||||||",
"||||||||||4 $#|||||||8=%||||||||",
"||||||||||,7$#||||||18$O||||||||",
"||||||||>,*+|||||||,*+$O||||||||",
"||||||||:4+o||||||67;$o|||||||||",
"||||||||:4+o|||||4-$$$||||||||||",
"||||||||:4+X2||||4-$$$||||||||||",
"||||||||:4+*42|||4-$$$||||||||||",
"||||||||:4+*44,,7+@$usNNN|||||||",
"||||||||34+;88887qqqahZCV|||||||",
"|||||44444+$$$$$0dddvSELVVV|||||",
"||||244444+$$$$rylllAI(!KZVm||||",
"|||:444444+$$$$pgVVVUQ}_EFVVB|||",
"||144444.*$$$eidgVHURQ}[`WUVB|||",
"||444488&$$$$tddgVJTEQ]{}~EVM|||",
"||44447$$$$$$tddgVVVUEE/}~EVVV||",
"|1444.-$$$$$$tddfxnVJPE/})^GFV||",
"44444$$$$$$$$tddddlVVSE/}}}ELV||",
"44444$$$$$$$$tddddghbSEQ~'}ELV||",
"44444$$$$$$$$tddddddvSEEE`}ELV||",
"44444$$$$$$wddddddddvVVGEEEELVVV",
"44444$$$$$$wddddddddkcVFLREEYGCV",
"44444$$$$$$wdddddddddgVVVUEEEEFV",
"4444499999+wdddddddddfhzVDFFFFCV",
"4444444444+wdddddddddddjVVVVVVVV"
};
