/* XPM */
static char *result[] = {
/* columns rows colors chars-per-pixel */
"32 32 97 2 ",
"   c #276667",
".  c #286767",
"X  c #2C6D61",
"o  c #2D6D62",
"O  c #2C6C63",
"+  c #2C6D63",
"@  c #2C6E62",
"#  c #2D6E62",
"$  c #2A6965",
"%  c #2B6A64",
"&  c #2A6B64",
"*  c #2B6B64",
"=  c #2A6A65",
"-  c #296866",
";  c #296966",
":  c #256169",
">  c #246269",
",  c #256269",
"<  c #256369",
"1  c #24626A",
"2  c #25636A",
"3  c #256469",
"4  c #266568",
"5  c #276568",
"6  c #266469",
"7  c #266569",
"8  c #276668",
"9  c #2D7063",
"0  c #2D7363",
"q  c #2E7263",
"w  c #2E7764",
"e  c #2E7A65",
"r  c #2E7F66",
"t  c #2E7E67",
"y  c #2F8167",
"u  c #2F8368",
"i  c #308668",
"p  c #328668",
"a  c #358B69",
"s  c #308D6A",
"d  c #30906A",
"f  c #31936B",
"g  c #31956C",
"h  c #34986C",
"j  c #379A6D",
"k  c #3D9F6D",
"l  c #3D9F6E",
"z  c #40A16F",
"x  c #43A46E",
"c  c #46A76F",
"v  c #49A96F",
"b  c #4CAC70",
"n  c #4FAE70",
"m  c #54B070",
"M  c #56B371",
"N  c #56B471",
"B  c #59B671",
"V  c #5DB773",
"C  c #5CB972",
"Z  c #5FBC72",
"A  c #60BA73",
"S  c #62BD71",
"D  c #61BE73",
"F  c #62BF72",
"G  c #62BE73",
"H  c #64BF73",
"J  c #61BE74",
"K  c #66BF74",
"L  c #66C074",
"P  c #6AC175",
"I  c #6DC376",
"U  c #6FC476",
"Y  c #71C577",
"T  c #73C678",
"R  c #75C778",
"E  c #79C879",
"W  c #7DCA7A",
"Q  c #79C87D",
"!  c #7BCA7C",
"~  c #7DCA7E",
"^  c #81CC7B",
"/  c #85CD7E",
"(  c #85CE7E",
")  c #89CF81",
"_  c #91D387",
"`  c #95D48C",
"'  c #99D68D",
"]  c #9BD78F",
"[  c #A1D993",
"{  c #A5DB96",
"}  c #A9DD99",
"|  c #B1E09F",
" . c #B5E2A2",
".. c #B9E3A5",
"X. c #B9E4A5",
"o. c #C1E7AB",
"O. c None",
/* pixels */
"O.O.O.O.O.O.O.O.O.O.O.O.O.O.O.O.O.O.O.O.O.O.O.O.O.O.O.O.O.O.O.O.",
"O.O.O.O.O.O.O.O.O.O.O.O.O.O.O.O.O.O.O.O.O.O.O.O.O.O.O.O.O.O.O.O.",
"O.O.O.O.O.O.O.O.O.O.O.O.2 2 2 O.O.O.O.O.O.O.O.O.O.O.O.O.O.O.O.O.",
"O.O.O.O.O.O.O.O.O.O.2   = ; O.O.O.O.O.O.O.2 2 2 2 O.O.O.O.O.O.O.",
"O.O.O.O.O.O.O.O.O.O., 5 # @ O.O.O.O.O.O.< 2 2 2 2 O.O.O.O.O.O.O.",
"O.O.O.O.O.O.O.O.: 2 O X O.O.O.O.O.O.1 2 * # # o O.O.O.O.O.O.O.O.",
"O.O.O.O.O.O.O.O.5 5 + X O.O.O.O.O.O.4 5 & X X O.O.O.O.O.O.O.O.O.",
"O.O.O.O.O.O.O.2 $ # # X O.O.O.O.O.2 - # O.O.O.O.O.O.O.O.O.O.O.O.",
"O.O.O.O.O.O.O.2 $ # O.O.O.O.O.2 6 = O # O.O.O.O.O.O.O.O.O.O.O.O.",
"O.O.O.O.O.O.O.2 $ # O.O.O.O.O., 6 # # # O.O.O.O.O.O.O.O.O.O.O.O.",
"O.O.O.O.O.O.O.2 $ # 7 , , O.O., 6 # r d m D O.O.O.O.O.O.O.O.O.O.",
"O.O.O.O.O.O.O.2 $ # 7 6 5 4 O.7 . w a k B G O.O.O.O.O.O.O.O.O.O.",
"O.O.O.O.O.O.O.2 $ # 7 5 # - 2 O 0 g v G G G G F O.O.O.O.O.O.O.O.",
"O.O.O.O.O.1 < 2 $ # $ = # * - t p v V Y Y U G J S O.O.O.O.O.O.O.",
"O.O.O.O.O.2 2 2 $ # # # # # # d j G Y ^ ^ W G G G O.O.O.O.O.O.O.",
"O.O.O.> , 2 2 2 $ # # # # r d M A W ] ....| W T G G D O.O.O.O.O.",
"O.O.O.: 2 2 2 2 $ # # 9 q u g C L W ] ..o.X.) ! K G G O.O.O.O.O.",
"O.O.O.: 2 2 2 2 $ # # w g g g C G G Y ^ | o.o.} ^ P G G F O.O.O.",
"O.O.O.: 2 2 2 2 $ # # w g g g c b G P Y ` { o. .[ ~ Y G F O.O.O.",
"O.O.O.: 2 2 2 2 $ # # w g g g g j G G G E ) o.o.o._ ^ G F O.O.O.",
"O.O.O.: 2 2 2 2 $ # # w g g g g h l n G E ( _ [ o._ ^ G F O.O.O.",
"O.O.O.: 2 2 6 6 % # # w g g g g g g v G R W ^ ' o._ ^ G F O.O.O.",
"O.O.O.: 2 2 5 # # # # w g g g g g g v G G L ^ ' o._ ^ G F O.O.O.",
"O.O.O.< 2 2 5 # # # # 0 i s g g g g z n Z L ^ ' o._ ^ G D O.O.O.",
"O.O.2 2 2 2 5 # # # # # # y g g g g g g M L ^ ' o._ ^ G G G O.O.",
"O.O.2 2 2 2 5 # # # # # # y g g g g g g M H P Q _ / ^ G G G O.O.",
"O.O.2 2 2 2 5 # # # # # # y g g g g g g M G G I ^ ^ ^ G G G O.O.",
"O.O.2 2 2 2 5 # # # # # # y g g g g g g g j G G G G G G G G O.O.",
"O.O.2 2 2 2 5 # # # # # # e i f g g g g g h n N G G G G G G O.O.",
"O.O.2 2 2 2 5 # # # # # # # # d g g g g g g g x G G G G G G O.O.",
"O.O.2 2 2 2 3 8 8 8 8 8 8 = # d g g g g g g g x G G G G G G O.O.",
"O.O.2 2 2 2 2 2 2 2 2 2 2 - # d g g g g g g g x G G G G G G O.O."
};
