/* XPM */
static char *result[] = {
/* columns rows colors chars-per-pixel */
"32 32 92 1 ",
"  c #296766",
". c #286767",
"X c #2B6D62",
"o c #2C6D61",
"O c #2D6D62",
"+ c #2C6C63",
"@ c #2C6D63",
"# c #2C6E62",
"$ c #2D6E62",
"% c #2A6965",
"& c #2B6A64",
"* c #2B6B64",
"= c #2A6A65",
"- c #296866",
"; c #2A6966",
": c #256169",
"> c #256368",
", c #256269",
"< c #246369",
"1 c #256369",
"2 c #24626A",
"3 c #25626A",
"4 c #25636A",
"5 c #256469",
"6 c #276568",
"7 c #266469",
"8 c #266569",
"9 c #276668",
"0 c #276768",
"q c #2D7063",
"w c #2D7363",
"e c #2E7263",
"r c #2D7164",
"t c #2E7764",
"y c #2E7864",
"u c #2E7A65",
"i c #2F7B65",
"p c #2D7B67",
"a c #2F8167",
"s c #328567",
"d c #308668",
"f c #308B69",
"g c #30906A",
"h c #31936B",
"j c #31956C",
"k c #34976D",
"l c #34986C",
"z c #379A6D",
"x c #3A9C6E",
"c c #3D9F6E",
"v c #40A26E",
"b c #43A46E",
"n c #49A96F",
"m c #4FAE70",
"M c #52AF70",
"N c #56B371",
"B c #56B471",
"V c #59B671",
"C c #59B572",
"Z c #60BA73",
"A c #62BD71",
"S c #61BD73",
"D c #62BD73",
"F c #61BE73",
"G c #62BE73",
"H c #64BF73",
"J c #62BE74",
"K c #64BF74",
"L c #66BF74",
"P c #66C074",
"I c #68C175",
"U c #6AC175",
"Y c #6BC276",
"T c #6DC376",
"R c #70C476",
"E c #71C577",
"W c #73C677",
"Q c #75C678",
"! c #79C879",
"~ c #7DCA7A",
"^ c #81CC7B",
"/ c #85CD7E",
"( c #89CF81",
") c #91D387",
"_ c #95D58A",
"` c #99D68D",
"' c #A1D993",
"] c #A9DD99",
"[ c #B1E09F",
"{ c #B9E3A5",
"} c #C1E7AB",
"| c None",
/* pixels */
"||||||||||||||||||||||||||||||||",
"||||||||||||||||||||||||||||||||",
"||||||||||||||||||||||||||||||||",
"||||||||||||||||||||||||||||||||",
"||||||||||||||||||||||||||||||||",
"||||||||||||||||||||||||||||||||",
"||||||||||||||||||||||||||||||||",
"||||||||||||||||||||||||||||||||",
"||||||||||||||4444|||4444|||||||",
"|||||||||||||244442|14444|||||||",
"||||||||||1,, ++O|2,*++++8,,4|||",
"||||||||||476;ooX|44*$ooo0<<||||",
"||||||||:446$#|||444*$||||||||||",
"|||||||234.=$*22>---psAAAAA|||||",
"|||||||444+$$-447$$$fzGGGGG|||||",
"|||||,,444+$$@++rgggMZ~~~IGFS|||",
"|||||44444+$$$$etjkzCU^/(TLGD|||",
"|||:444444+$$$$gjjnG!^^`})^GGG||",
"||234444.-@$$$$gjjnGTW^`}]'EYG||",
"||444444%$$$$$$gjjnGGP^`}}}^QG||",
"14444444%$$$$$$gjjzcVP^`}}}^QG||",
"44444477&$$$$qegjjjjNP^_{}}^QG||",
"4444446$$$$$$ajjjjjjNP^^^[}^QG||",
"4444446$$$$$$ajjjjjjNHQ!^[}^QG||",
"4444446$$$$$$ajjjjjjNGGT^[}^QG||",
"4444446$$$$$$ajjjjjjxvGT^[}^QGJF",
"4444446$$$$$$ajjjjjjjzGT^[}^QGGG",
"||44446$$$$$$ajjjjjjjzGGG!^}]^UG",
"||44446$$$$$$udhjjjjjlmBGRQ]`^UG",
"||44446$$$$$$$$gjjjjjjjbGGG^^^UG",
"||44445999999=$yijjjjjjzcVGUUUKG",
"||44444444444-$$wjjjjjjjjNGGGGGG"
};
