/* XPM */
static char *result[] = {
/* columns rows colors chars-per-pixel */
"32 32 22 1 ",
"  c #1B1B1B",
". c gray11",
"X c #1D1D1D",
"o c #282828",
"O c #343434",
"+ c #353535",
"@ c gray26",
"# c #4E4E4E",
"$ c #5F5F5F",
"% c #686868",
"& c #747474",
"* c #797979",
"= c #808080",
"- c gray55",
"; c gray60",
": c gray65",
"> c #B2B2B2",
", c #CBCBCB",
"< c gray80",
"1 c #D8D8D8",
"2 c #E4E4E4",
"3 c None",
/* pixels */
"33333333333333333333333333333333",
"33333333333333333333333333333333",
"33333333333333333333333333333333",
"33333...333333333333333333333333",
"3333.....X333333333333333X..3333",
"3333..;+...33333333XX3..$%...333",
"3333.%22;+...333.X3..*&.,2;..333",
"33333$,22<&....3..:=@22122+..333",
"33333..1222<%.o,;=2222222;..3333",
"33333.&222222;-222222222<+. 3333",
"333333*22222222212222222=..33333",
"33333X.#2222212<#;22222<..333333",
"33333 .=2222>.=%..O>222%..333333",
"3333333:2222+..3 ...12:..3333333",
"333333X.=22;..3333.=22-o.3333333",
"333333..;21#. 33333%,22<33333333",
"33333333,22<%33333X.#12;..333333",
"3333333.o-22=.3333..;22=. 333333",
"3333333..;21...X3..O2222:3333333",
"333333..%222:+..%=.:2222=.X33333",
"333333..,22222;#,2122222#. 33333",
"33333..&22222221222222222*333333",
"3333X.O,222222222-:222222&.33333",
"3333..;2222222=;<o.%,2221..33333",
"333..O22122#=:..3....=,22<$33333",
"333..:2<.&*..3 .333...O;22%X3333",
"333...%$..3  33333333...O:..3333",
"3333...333333333333333 .....3333",
"333333333333333333333333...33333",
"33333333333333333333333333333333",
"33333333333333333333333333333333",
"33333333333333333333333333333333"
};
