/* XPM */
static char *result[] = {
/* columns rows colors chars-per-pixel */
"32 32 16 1 ",
"  c #1B1B1B",
". c gray11",
"X c #1D1D1D",
"o c #353535",
"O c #4E4E4E",
"+ c #676767",
"@ c #808080",
"# c #939393",
"$ c gray58",
"% c gray60",
"& c #B2B2B2",
"* c gray",
"= c gray75",
"- c #CBCBCB",
"; c #E4E4E4",
": c None",
/* pixels */
"::::::::::::::::::.... :::::::::",
"::::::::::::::::::.... :::::::::",
"::::::::::::::::..$&@. :::::::::",
"::::::::::::::::..&;%. :::::::::",
"::::::::::::::::++*;%. :::::::::",
"::::::::::::::..;;;;%. :::::::::",
"::::::::::::::oo;;;;%. :::::::::",
"::::::::::: .O;;;;;;%. :::::::::",
"::::::::::: .O;;;;;;%. :::::::::",
"           $--;;;;;;%. :::::::::",
"...........%;;;;;;;;%. :::::::::",
"..@%%%%%%%%-;=++++-;-%#XX:::::::",
"..&;;;;;;;;;;&....&;;;-..:::::::",
"..$&*;;;;;;-&$....$&*;-OO:::::::",
"::..+;;;;;;+..::::..+;;;;o.:::::",
"::..+;;;;;;+..::::..+;;;;o.:::::",
":::::.o;;;;+..::::..+;;;;;;+..::",
":::::.o;;;;+..::::..+;;;;;;+..::",
":::::::OO-;*&#....$&-;;;;;;*&#..",
":::::::..-;;;&....&;;;;;;;;;;&..",
":::::::XX$%-;-++++*;-%%%%%%%%@..",
"::::::::: .%;;;;;;;;%...........",
"::::::::: .%;;;;;;--$           ",
"::::::::: .%;;;;;;O.X:::::::::::",
"::::::::: .%;;;;;;O.X:::::::::::",
"::::::::: .%;;;;oo::::::::::::::",
"::::::::: .%;;;;..::::::::::::::",
"::::::::: .%;=++::::::::::::::::",
"::::::::: .%;&..::::::::::::::::",
"::::::::: .@&$..::::::::::::::::",
"::::::::: ....::::::::::::::::::",
"::::::::: ....::::::::::::::::::"
};
