/* XPM */
static char *result[] = {
/* columns rows colors chars-per-pixel */
"31 32 4 1 ",
"  c gray11",
". c #1D1D1D",
"X c gray89",
"o c #E4E4E4",
/* pixels */
"ooooooooooo      oooooooooo    ",
"ooooooooooo      oooooooooo    ",
"ooooooooooooo  oooooooooooooooo",
"ooooooooooooo  oooooooooooooooo",
"ooooooooooooo  oooooooo    oooo",
"ooooooooooooo  oooooooo    oooo",
"ooooooooooooo  oooooooooooooooo",
"ooooooooooooo  oooooooooooooooo",
"ooooooooooooo  oooooooooooooooo",
"ooooooooooooo  oooooooooooooooo",
"ooooo  oooooo  oooooooooooooooo",
"ooooo  oooooo  oooooooooooooooo",
"o    oooooo      oooooooooooooo",
"o    oooooo      oooooooooooooo",
"                               ",
"                               ",
"   oooooooooooooooooo    oooo  ",
"   oooooooooooooooooo    oooo  ",
" oooooo    oooooooooooooooooooo",
" oooooo    oooooooooooooooooooo",
" oooooooooooooooooooooooooooooo",
" oooooooooooooooooooooooooooooo",
" oooooooooooooooooooooooo  oooo",
" oooooooooooooooooooooooo..oooo",
" oooooooooooooooooooooooooooooo",
" oooooooooooooooooooooooooooooo",
" oooooooooo    oooooooooooooooo",
" oooooooooo    ooooooooooooooXX",
"   oooooooooooo    oooooooooo  ",
"   oooooooooooo    XXXXXXXXXX  ",
"                               ",
"                               "
};
